<?xml version="1.0" encoding="UTF-8"?>
<svg xmlns="http://www.w3.org/2000/svg" viewBox="0 0 465 167" width="465" height="167">
<path d="M0.08 0.08C155.03 0.08 309.97 0.08 464.92 0.08C464.92 55.69 464.92 111.31 464.92 166.92C309.97 166.92 155.03 166.92 0.08 166.92C0.08 111.31 0.08 55.69 0.08 0.08ZM434.56 29.1C424.96 31.74 429.85 47.06 439.66 43.82C448.99 40.74 444.14 26.48 434.56 29.1ZM441.5 40.2C440.11 40.07 439.52 38.66 438.89 37.5C439.61 35.95 440.25 35.32 439.85 33.5C438 31.81 435.62 32.83 433.87 31.5C439.4 28.45 445.94 35.14 441.5 40.2ZM433.2 32.65C433.2 35.17 433.2 37.69 433.2 40.21C430.16 39.36 430.45 33.69 433.2 32.65ZM439.95 41.5C438.15 42.53 435.85 42.52 434.04 41.5C434.64 40.3 435.24 39.1 435.83 37.91C437.21 39.1 438.58 40.3 439.95 41.5ZM364.44 65.5C366.45 58.83 359.14 52.02 353.79 49.73C343.04 45.13 323.31 44.76 316.29 56.11C314.4 59.16 313.61 62.7 314.66 66.18C318.12 77.68 333.99 78.9 343.85 80.91C347.67 81.68 355.02 82.62 355.08 87.83C355.13 93.36 347.47 94.95 343.24 95.16C337.03 95.47 327.89 95 324.31 88.86C323.28 87.11 323.41 84.94 322.5 83.23C318.83 83.6 315.17 83.97 311.5 84.33C312.29 87.57 312.32 90.7 314.15 93.7C320.35 103.9 335.02 105.86 345.83 104.39C355.05 103.14 365.15 98.88 366.58 88.48C368.55 74.18 347.99 70.78 338.09 69.13C334.65 68.56 326.17 67.74 325.74 63.16C324.91 54.4 344.13 55.53 348.91 58.25C352.44 60.25 351.69 63.53 353.83 66.08C357.37 65.89 360.9 65.69 364.44 65.5ZM64.2 47.89C48.57 47.89 32.93 47.89 17.29 47.89C17.29 66.55 17.29 85.2 17.29 103.86C21.22 103.86 25.16 103.86 29.09 103.86C29.09 95.96 29.09 88.06 29.09 80.17C39.27 79.94 49.45 79.72 59.63 79.5C59.63 76.72 59.63 73.94 59.63 71.17C57.3 69.81 53.49 70.53 50.83 70.53C43.83 70.53 36.02 71.49 29.13 70.26C29.13 65.9 29.13 61.55 29.13 57.19C40.82 57.19 52.51 57.19 64.2 57.19C64.2 54.09 64.2 50.99 64.2 47.89ZM83.88 47.91C79.93 47.91 75.98 47.91 72.02 47.91C72.02 66.57 72.02 85.23 72.02 103.88C86.61 103.88 101.2 103.88 115.78 103.88C115.78 100.87 115.78 97.85 115.78 94.83C105.15 94.61 94.51 94.39 83.88 94.17C83.88 78.75 83.88 63.33 83.88 47.91ZM134.5 47.91C130.76 47.91 127.02 47.91 123.28 47.91C122.24 51.84 122.99 56.77 122.99 60.83C122.99 69.55 120.96 85.87 125.3 93.48C126.78 96.09 133.16 101.06 133.5 102C135.27 101.35 139.12 103.69 141.17 103.99C147.3 104.88 154.17 105.46 160.23 103.78C179.74 98.37 177.23 83.21 177.23 66.5C177.23 60.88 178.57 53.27 176.9 47.92C173.21 47.92 169.52 47.92 165.83 47.92C164.29 56.2 165.6 69.96 165.59 78.83C165.59 83.35 165.52 89.7 161.45 92.64C157.37 95.59 151.3 95.39 146.5 95.09C137.32 94.52 134.86 88 134.84 79.83C134.83 72.72 134.84 65.61 134.84 58.5C134.84 55.2 135.51 51.06 134.5 47.91ZM238.84 47.88C222.16 47.88 205.48 47.88 188.8 47.88C188.8 50.99 188.8 54.1 188.8 57.21C205.48 57.21 222.16 57.21 238.84 57.21C238.84 54.1 238.84 50.99 238.84 47.88ZM291.95 85.75C289.03 84.16 286.7 80.21 284.58 77.58C278.88 70.52 273.07 63.53 267.21 56.63C265.18 54.24 262.99 49.79 260.28 48.21C258.01 46.88 251.46 47.61 248.96 48.17C248.96 66.73 248.96 85.3 248.96 103.86C252.74 103.86 256.52 103.86 260.31 103.86C260.31 91.3 260.31 78.73 260.31 66.17C263.64 67.17 266.85 73.07 269.07 75.77C274.63 82.53 280.35 89.17 285.79 96.05C287.42 98.12 290.01 102.73 292.47 103.75C294.87 104.74 300.65 104.23 303.14 103.68C303.14 85.09 303.14 66.5 303.14 47.91C299.41 47.91 295.68 47.91 291.95 47.91C291.95 60.52 291.95 73.13 291.95 85.75ZM425.49 48.28C421.94 47.12 417.23 47.87 413.5 47.87C405.17 47.87 396.83 47.87 388.5 47.87C384.84 47.87 378.6 46.68 375.38 48.45C375.38 51.37 375.38 54.29 375.38 57.21C392.09 57.21 408.79 57.21 425.49 57.21C425.49 54.23 425.49 51.25 425.49 48.28ZM238.84 70.16C222.27 70.16 205.71 70.16 189.14 70.16C188.55 72.52 187.97 77.62 189.5 79.62C205.95 79.62 222.39 79.62 238.84 79.62C238.84 76.47 238.84 73.31 238.84 70.16ZM425.17 70.16C408.6 70.16 392.03 70.16 375.46 70.16C375.46 73.16 375.46 76.17 375.46 79.17C378.95 80.45 383.78 79.62 387.5 79.62C395.94 79.62 404.39 79.62 412.83 79.62C415.08 79.62 423.33 80.37 424.86 79.36C426.68 78.16 425.7 71.93 425.17 70.16ZM238.87 94.52C222.19 94.52 205.52 94.52 188.84 94.52C188.84 97.65 188.84 100.78 188.84 103.91C205.52 103.91 222.19 103.91 238.87 103.91C238.87 100.78 238.87 97.65 238.87 94.52ZM425.56 94.52C408.85 94.52 392.15 94.52 375.44 94.52C375.44 97.65 375.44 100.78 375.44 103.91C392.15 103.91 408.85 103.91 425.56 103.91C425.56 100.78 425.56 97.65 425.56 94.52ZM425.77 114.17C426.96 111.1 416.01 112.3 413.83 112.3C400.5 112.3 387.17 112.3 373.83 112.3C338.94 112.3 304.06 112.31 269.17 112.31C205.39 112.31 141.61 112.31 77.83 112.31C62.72 112.31 47.61 112.31 32.5 112.31C29.97 112.31 18.94 111.54 18.11 113.5C19.07 115.18 22.16 114.48 23.83 114.48C29.61 114.48 35.39 114.5 41.17 114.5C65.17 114.5 89.17 114.5 113.17 114.5C185.72 114.5 258.28 114.5 330.83 114.5C352.72 114.5 374.61 114.5 396.5 114.5C402.5 114.5 421.26 115.62 425.77 114.17ZM22.83 123.44C21.72 123.44 20.61 123.44 19.5 123.44C18.46 125.28 18.43 138.71 19.5 140.51C20.61 140.51 21.72 140.51 22.83 140.51C23.06 138.06 23.28 135.61 23.5 133.17C26.06 133.17 28.61 133.17 31.17 133.17C31.4 135.6 31.62 138.03 31.85 140.46C33.19 140.46 34.54 140.46 35.88 140.46C35.88 134.81 35.88 129.16 35.88 123.5C34.53 123.5 33.17 123.5 31.82 123.5C31.6 125.66 31.38 127.81 31.17 129.96C28.61 129.96 26.06 129.96 23.5 129.96C23.28 127.79 23.06 125.62 22.83 123.44ZM97.83 123.48C96.64 123.48 95.45 123.48 94.25 123.48C94.25 129.15 94.25 134.81 94.25 140.47C95.45 140.47 96.64 140.47 97.83 140.47C98.88 138.86 98.86 125.1 97.83 123.48ZM130.5 123.49C129.25 123.49 128.01 123.49 126.76 123.49C126.76 129.13 126.76 134.77 126.76 140.41C128.03 140.41 129.31 140.41 130.58 140.41C131.49 137.53 129.17 130.29 134.17 130.56C138.3 130.78 135.58 137.79 136.83 140.12C137.98 140.84 139.5 140.73 140.51 139.83C141.6 133.39 140.49 124.15 131.5 128.95C131.17 127.13 130.83 125.31 130.5 123.49ZM261.17 134.34C265.02 133.2 274.27 134.95 272.37 127.49C271 122.1 260.4 122.35 256.34 123.83C256.34 129.16 256.34 134.49 256.34 139.81C257.66 140.69 259.02 140.84 260.5 140.15C260.72 138.21 260.94 136.28 261.17 134.34ZM410.5 123.51C409.26 123.51 408.03 123.51 406.79 123.51C406.58 125.19 406.37 126.88 406.17 128.56C403.17 128.66 400.63 126.98 397.7 129.2C394.41 131.7 395.18 137.9 398.59 139.9C401.35 141.52 403.82 140.6 406.5 139.47C407.53 140.93 408.96 140.67 410.5 140.15C410.5 134.6 410.5 129.06 410.5 123.51ZM358.6 123.68C357.31 123.68 356.02 123.68 354.72 123.68C354.72 129.29 354.72 134.91 354.72 140.53C359.54 140.53 364.36 140.53 369.18 140.53C369.18 139.54 369.18 138.55 369.18 137.56C365.96 137.56 362.73 137.56 359.5 137.56C359.2 132.93 358.9 128.3 358.6 123.68ZM113.5 124.04C112.33 124.53 111.15 125.01 109.98 125.5C109.98 126.17 109.98 126.83 109.98 127.5C109.35 127.83 108.72 128.17 108.09 128.5C108.09 129.17 108.09 129.83 108.09 130.5C108.6 130.72 109.1 130.94 109.61 131.17C111.46 136.4 107.16 142.53 116.85 140.49C116.85 139.77 116.85 139.05 116.85 138.34C115.93 138.06 115.01 137.78 114.09 137.5C114.09 135.45 114.09 133.4 114.09 131.35C114.99 131.07 115.89 130.78 116.79 130.5C116.79 129.83 116.79 129.17 116.79 128.5C115.91 128.2 115.04 127.9 114.17 127.6C113.94 126.42 113.72 125.23 113.5 124.04ZM310.5 124.09C308 124.81 307.19 125.4 306.5 127.83C306.01 128.05 305.51 128.28 305.02 128.5C305.02 129.17 305.02 129.83 305.02 130.5C305.52 130.72 306.03 130.94 306.53 131.17C307.12 133.49 305.86 137.46 307.38 139.44C308.9 141.43 314.43 141.8 313.83 138.39C312.9 138.11 311.96 137.82 311.03 137.53C311.03 135.43 311.03 133.34 311.03 131.24C311.9 131.02 312.78 130.8 313.65 130.58C313.65 129.83 313.65 129.08 313.65 128.33C312.83 128.12 312 127.9 311.17 127.69C310.94 126.49 310.72 125.29 310.5 124.09ZM383.5 124.1C381.39 124.48 379.84 125.26 379.72 127.5C379.13 127.83 378.55 128.17 377.97 128.5C377.97 129.17 377.97 129.83 377.97 130.5C378.48 130.72 378.99 130.95 379.5 131.17C380.15 133.54 378.78 137.54 380.25 139.6C381.68 141.61 387.13 141.57 386.81 138.5C385.87 138.18 384.93 137.87 383.99 137.55C383.99 135.44 383.99 133.33 383.99 131.21C384.82 130.98 385.66 130.74 386.49 130.5C386.49 129.83 386.49 129.17 386.49 128.5C385.72 128.24 384.94 127.98 384.17 127.73C383.94 126.52 383.72 125.31 383.5 124.1ZM267.84 127.5C267.84 128.17 267.84 128.83 267.84 129.5C266.31 131.47 263.17 131.28 260.92 130.83C260.92 129.38 260.92 127.94 260.92 126.5C263.49 126.19 265.51 126.46 267.84 127.5ZM60.13 134.83C62.22 126.89 48.15 125.25 46.2 132.74C44.1 140.8 56.19 143.68 59.9 137.5C57.72 135.39 49.93 140.68 50.95 135.5C54.01 135.28 57.07 135.06 60.13 134.83ZM83.48 140.17C83.82 138.78 83.2 130.28 82.23 129.26C79.67 126.59 72.19 127.16 70.5 130.6C72.28 134.38 77.82 127.74 78.84 131.83C77.35 134.85 69.35 131.79 69.82 137.44C70.23 142.45 76.67 140.33 79.5 139.73C80.7 140.71 82.08 140.9 83.48 140.17ZM164.83 131.58C163.77 125.38 150.55 126.62 150.95 134.83C151.29 141.75 164.24 143.49 165.03 136.5C163.86 136.31 162.68 136.11 161.5 135.92C158.25 139.61 153.77 137.35 155.41 132.56C156.91 128.21 161.95 133.27 164.83 131.58ZM187.83 140.31C188.71 137.44 188.31 129.67 185.2 128.28C182.75 127.18 175.13 127.26 175.17 131.13C177.42 133.81 180.58 128.98 183.45 131.5C181.82 134.59 174.17 132.01 174.23 137.17C174.28 141.87 180.82 140.96 183.5 139.72C184.98 140.38 186.26 140.96 187.83 140.31ZM203.5 128.24C201.94 128.24 200.39 128.24 198.83 128.24C198.83 132.32 198.83 136.4 198.83 140.47C200.05 140.47 201.28 140.47 202.5 140.47C203.56 138.21 201.55 132.43 204.35 131.19C205.28 130.78 206.5 131.09 207.5 130.86C207.72 130.07 207.94 129.29 208.16 128.5C206.6 128.41 205.05 128.33 203.5 128.24ZM230.17 134.96C231.75 132.55 228.68 129.19 226.55 128.26C222.21 126.37 217.13 128.96 216.29 133.5C214.89 141.07 226.81 143.51 230.05 137.5C228.87 137.21 227.68 136.93 226.5 136.64C224.68 138.17 220.84 139.09 221.08 135.5C224.11 135.32 227.14 135.14 230.17 134.96ZM285.5 128.14C284.18 128.14 282.86 128.14 281.54 128.14C282.07 130.24 285.72 139.02 287.32 140.18C288.03 140.7 289.7 140.73 290.5 140.41C292.16 139.75 295.92 130.51 296.64 128.5C292.1 126.12 290.86 132.35 289.5 135.39C288.17 132.97 286.83 130.56 285.5 128.14ZM56.04 132.5C54.89 133.52 51.88 133.43 50.64 132.5C51.77 130.17 55.1 129.75 56.04 132.5ZM226.17 132.54C224.91 133.44 222.08 133.42 220.84 132.5C221.82 130.1 225.41 129.84 226.17 132.54ZM402.2 130.72C406.47 129.66 408.01 136.52 404.4 137.85C399.84 139.54 398.02 131.76 402.2 130.72ZM78.83 135.2C79.25 138.28 74.61 139.59 74.07 136.5C75.18 135.19 77.23 134.62 78.83 135.2ZM183.65 135.5C183.14 138 179.27 139.76 178.6 136.5C179.89 135.28 182.05 134.36 183.65 135.5ZM327.75 137.13C326.42 137.13 325.1 137.13 323.77 137.13C323.77 138.24 323.77 139.34 323.77 140.45C325.1 140.45 326.42 140.45 327.75 140.45C327.75 139.34 327.75 138.24 327.75 137.13ZM425.75 137.12C424.43 137.12 423.11 137.12 421.78 137.12C421.78 138.23 421.78 139.34 421.78 140.45C423.11 140.45 424.43 140.45 425.75 140.45C425.75 139.34 425.75 138.23 425.75 137.12Z" fill="#ffffff" fill-rule="evenodd" stroke="#ffffff" stroke-width="0.25" stroke-linejoin="round"/>
<path d="M434.56 29.1C444.14 26.48 448.99 40.74 439.66 43.82C429.85 47.06 424.96 31.74 434.56 29.1ZM441.5 40.2C445.94 35.14 439.4 28.45 433.87 31.5C435.62 32.83 438 31.81 439.85 33.5C440.25 35.32 439.61 35.95 438.89 37.5C439.52 38.66 440.11 40.07 441.5 40.2ZM433.2 32.65C430.45 33.69 430.16 39.36 433.2 40.21C433.2 37.69 433.2 35.17 433.2 32.65ZM439.95 41.5C438.58 40.3 437.21 39.1 435.83 37.91C435.24 39.1 434.64 40.3 434.04 41.5C435.85 42.52 438.15 42.53 439.95 41.5ZM364.44 65.5C360.9 65.69 357.37 65.89 353.83 66.08C351.69 63.53 352.44 60.25 348.91 58.25C344.13 55.53 324.91 54.4 325.74 63.16C326.17 67.74 334.65 68.56 338.09 69.13C347.99 70.78 368.55 74.18 366.58 88.48C365.15 98.88 355.05 103.14 345.83 104.39C335.02 105.86 320.35 103.9 314.15 93.7C312.32 90.7 312.29 87.57 311.5 84.33C315.17 83.97 318.83 83.6 322.5 83.23C323.41 84.94 323.28 87.11 324.31 88.86C327.89 95 337.03 95.47 343.24 95.16C347.47 94.95 355.13 93.36 355.08 87.83C355.02 82.62 347.67 81.68 343.85 80.91C333.99 78.9 318.12 77.68 314.66 66.18C313.61 62.7 314.4 59.16 316.29 56.11C323.31 44.76 343.04 45.13 353.79 49.73C359.14 52.02 366.45 58.83 364.44 65.5ZM64.2 47.89C64.2 50.99 64.2 54.09 64.2 57.19C52.51 57.19 40.82 57.19 29.13 57.19C29.13 61.55 29.13 65.9 29.13 70.26C36.02 71.49 43.83 70.53 50.83 70.53C53.49 70.53 57.3 69.81 59.63 71.17C59.63 73.94 59.63 76.72 59.63 79.5C49.45 79.72 39.27 79.94 29.09 80.17C29.09 88.06 29.09 95.96 29.09 103.86C25.16 103.86 21.22 103.86 17.29 103.86C17.29 85.2 17.29 66.55 17.29 47.89C32.93 47.89 48.57 47.89 64.2 47.89ZM83.88 47.91C83.88 63.33 83.88 78.75 83.88 94.17C94.51 94.39 105.15 94.61 115.78 94.83C115.78 97.85 115.78 100.87 115.78 103.88C101.2 103.88 86.61 103.88 72.02 103.88C72.02 85.23 72.02 66.57 72.02 47.91C75.98 47.91 79.93 47.91 83.88 47.91ZM134.5 47.91C135.51 51.06 134.84 55.2 134.84 58.5C134.84 65.61 134.83 72.72 134.84 79.83C134.86 88 137.32 94.52 146.5 95.09C151.3 95.39 157.37 95.59 161.45 92.64C165.52 89.7 165.59 83.35 165.59 78.83C165.6 69.96 164.29 56.2 165.83 47.92C169.52 47.92 173.21 47.92 176.9 47.92C178.57 53.27 177.23 60.88 177.23 66.5C177.23 83.21 179.74 98.37 160.23 103.78C154.17 105.46 147.3 104.88 141.17 103.99C139.12 103.69 135.27 101.35 133.5 102C133.16 101.06 126.78 96.09 125.3 93.48C120.96 85.87 122.99 69.55 122.99 60.83C122.99 56.77 122.24 51.84 123.28 47.91C127.02 47.91 130.76 47.91 134.5 47.91ZM291.95 85.75C291.95 73.13 291.95 60.52 291.95 47.91C295.68 47.91 299.41 47.91 303.14 47.91C303.14 66.5 303.14 85.09 303.14 103.68C300.65 104.23 294.87 104.74 292.47 103.75C290.01 102.73 287.42 98.12 285.79 96.05C280.35 89.17 274.63 82.53 269.07 75.77C266.85 73.07 263.64 67.17 260.31 66.17C260.31 78.73 260.31 91.3 260.31 103.86C256.52 103.86 252.74 103.86 248.96 103.86C248.96 85.3 248.96 66.73 248.96 48.17C251.46 47.61 258.01 46.88 260.28 48.21C262.99 49.79 265.18 54.24 267.21 56.63C273.07 63.53 278.88 70.52 284.58 77.58C286.7 80.21 289.03 84.16 291.95 85.75ZM425.77 114.17C421.26 115.62 402.5 114.5 396.5 114.5C374.61 114.5 352.72 114.5 330.83 114.5C258.28 114.5 185.72 114.5 113.17 114.5C89.17 114.5 65.17 114.5 41.17 114.5C35.39 114.5 29.61 114.48 23.83 114.48C22.16 114.48 19.07 115.18 18.11 113.5C18.94 111.54 29.97 112.31 32.5 112.31C47.61 112.31 62.72 112.31 77.83 112.31C141.61 112.31 205.39 112.31 269.17 112.31C304.06 112.31 338.94 112.3 373.83 112.3C387.17 112.3 400.5 112.3 413.83 112.3C416.01 112.3 426.96 111.1 425.77 114.17Z" fill="#4c639e" fill-rule="evenodd" stroke="#4c639e" stroke-width="0.25" stroke-linejoin="round"/>
<path d="M238.84 47.88C238.84 50.99 238.84 54.1 238.84 57.21C222.16 57.21 205.48 57.21 188.8 57.21C188.8 54.1 188.8 50.99 188.8 47.88C205.48 47.88 222.16 47.88 238.84 47.88ZM425.49 48.28C425.49 51.25 425.49 54.23 425.49 57.21C408.79 57.21 392.09 57.21 375.38 57.21C375.38 54.29 375.38 51.37 375.38 48.45C378.6 46.68 384.84 47.87 388.5 47.87C396.83 47.87 405.17 47.87 413.5 47.87C417.23 47.87 421.94 47.12 425.49 48.28ZM238.84 70.16C238.84 73.31 238.84 76.47 238.84 79.62C222.39 79.62 205.95 79.62 189.5 79.62C187.97 77.62 188.55 72.52 189.14 70.16C205.71 70.16 222.27 70.16 238.84 70.16ZM425.17 70.16C425.7 71.93 426.68 78.16 424.86 79.36C423.33 80.37 415.08 79.62 412.83 79.62C404.39 79.62 395.94 79.62 387.5 79.62C383.78 79.62 378.95 80.45 375.46 79.17C375.46 76.17 375.46 73.16 375.46 70.16C392.03 70.16 408.6 70.16 425.17 70.16ZM238.87 94.52C238.87 97.65 238.87 100.78 238.87 103.91C222.19 103.91 205.52 103.91 188.84 103.91C188.84 100.78 188.84 97.65 188.84 94.52C205.52 94.52 222.19 94.52 238.87 94.52ZM425.56 94.52C425.56 97.65 425.56 100.78 425.56 103.91C408.85 103.91 392.15 103.91 375.44 103.91C375.44 100.78 375.44 97.65 375.44 94.52C392.15 94.52 408.85 94.52 425.56 94.52Z" fill="#e7703a" fill-rule="evenodd" stroke="#e7703a" stroke-width="0.25" stroke-linejoin="round"/>
<path d="M22.83 123.44C23.06 125.62 23.28 127.79 23.5 129.96C26.06 129.96 28.61 129.96 31.17 129.96C31.38 127.81 31.6 125.66 31.82 123.5C33.17 123.5 34.53 123.5 35.88 123.5C35.88 129.16 35.88 134.81 35.88 140.46C34.54 140.46 33.19 140.46 31.85 140.46C31.62 138.03 31.4 135.6 31.17 133.17C28.61 133.17 26.06 133.17 23.5 133.17C23.28 135.61 23.06 138.06 22.83 140.51C21.72 140.51 20.61 140.51 19.5 140.51C18.43 138.71 18.46 125.28 19.5 123.44C20.61 123.44 21.72 123.44 22.83 123.44ZM97.83 123.48C98.86 125.1 98.88 138.86 97.83 140.47C96.64 140.47 95.45 140.47 94.25 140.47C94.25 134.81 94.25 129.15 94.25 123.48C95.45 123.48 96.64 123.48 97.83 123.48ZM130.5 123.49C130.83 125.31 131.17 127.13 131.5 128.95C140.49 124.15 141.6 133.39 140.51 139.83C139.5 140.73 137.98 140.84 136.83 140.12C135.58 137.79 138.3 130.78 134.17 130.56C129.17 130.29 131.49 137.53 130.58 140.41C129.31 140.41 128.03 140.41 126.76 140.41C126.76 134.77 126.76 129.13 126.76 123.49C128.01 123.49 129.25 123.49 130.5 123.49ZM261.17 134.34C260.94 136.28 260.72 138.21 260.5 140.15C259.02 140.84 257.66 140.69 256.34 139.81C256.34 134.49 256.34 129.16 256.34 123.83C260.4 122.35 271 122.1 272.37 127.49C274.27 134.95 265.02 133.2 261.17 134.34ZM410.5 123.51C410.5 129.06 410.5 134.6 410.5 140.15C408.96 140.67 407.53 140.93 406.5 139.47C403.82 140.6 401.35 141.52 398.59 139.9C395.18 137.9 394.41 131.7 397.7 129.2C400.63 126.98 403.17 128.66 406.17 128.56C406.37 126.88 406.58 125.19 406.79 123.51C408.03 123.51 409.26 123.51 410.5 123.51ZM358.6 123.68C358.9 128.3 359.2 132.93 359.5 137.56C362.73 137.56 365.96 137.56 369.18 137.56C369.18 138.55 369.18 139.54 369.18 140.53C364.36 140.53 359.54 140.53 354.72 140.53C354.72 134.91 354.72 129.29 354.72 123.68C356.02 123.68 357.31 123.68 358.6 123.68ZM113.5 124.04C113.72 125.23 113.94 126.42 114.17 127.6C115.04 127.9 115.91 128.2 116.79 128.5C116.79 129.17 116.79 129.83 116.79 130.5C115.89 130.78 114.99 131.07 114.09 131.35C114.09 133.4 114.09 135.45 114.09 137.5C115.01 137.78 115.93 138.06 116.85 138.34C116.85 139.05 116.85 139.77 116.85 140.49C107.16 142.53 111.46 136.4 109.61 131.17C109.1 130.94 108.6 130.72 108.09 130.5C108.09 129.83 108.09 129.17 108.09 128.5C108.72 128.17 109.35 127.83 109.98 127.5C109.98 126.83 109.98 126.17 109.98 125.5C111.15 125.01 112.33 124.53 113.5 124.04ZM310.5 124.09C310.72 125.29 310.94 126.49 311.17 127.69C312 127.9 312.83 128.12 313.65 128.33C313.65 129.08 313.65 129.83 313.65 130.58C312.78 130.8 311.9 131.02 311.03 131.24C311.03 133.34 311.03 135.43 311.03 137.53C311.96 137.82 312.9 138.11 313.83 138.39C314.43 141.8 308.9 141.43 307.38 139.44C305.86 137.46 307.12 133.49 306.53 131.17C306.03 130.94 305.52 130.72 305.02 130.5C305.02 129.83 305.02 129.17 305.02 128.5C305.51 128.28 306.01 128.05 306.5 127.83C307.19 125.4 308 124.81 310.5 124.09ZM383.5 124.1C383.72 125.31 383.94 126.52 384.17 127.73C384.94 127.98 385.72 128.24 386.49 128.5C386.49 129.17 386.49 129.83 386.49 130.5C385.66 130.74 384.82 130.98 383.99 131.21C383.99 133.33 383.99 135.44 383.99 137.55C384.93 137.87 385.87 138.18 386.81 138.5C387.13 141.57 381.68 141.61 380.25 139.6C378.78 137.54 380.15 133.54 379.5 131.17C378.99 130.95 378.48 130.72 377.97 130.5C377.97 129.83 377.97 129.17 377.97 128.5C378.55 128.17 379.13 127.83 379.72 127.5C379.84 125.26 381.39 124.48 383.5 124.1ZM267.84 127.5C265.51 126.46 263.49 126.19 260.92 126.5C260.92 127.94 260.92 129.38 260.92 130.83C263.17 131.28 266.31 131.47 267.84 129.5C267.84 128.83 267.84 128.17 267.84 127.5ZM60.13 134.83C57.07 135.06 54.01 135.28 50.95 135.5C49.93 140.68 57.72 135.39 59.9 137.5C56.19 143.68 44.1 140.8 46.2 132.74C48.15 125.25 62.22 126.89 60.13 134.83ZM83.48 140.17C82.08 140.9 80.7 140.71 79.5 139.73C76.67 140.33 70.23 142.45 69.82 137.44C69.35 131.79 77.35 134.85 78.84 131.83C77.82 127.74 72.28 134.38 70.5 130.6C72.19 127.16 79.67 126.59 82.23 129.26C83.2 130.28 83.82 138.78 83.48 140.17ZM164.83 131.58C161.95 133.27 156.91 128.21 155.41 132.56C153.77 137.35 158.25 139.61 161.5 135.92C162.68 136.11 163.86 136.31 165.03 136.5C164.24 143.49 151.29 141.75 150.95 134.83C150.55 126.62 163.77 125.38 164.83 131.58ZM187.83 140.31C186.26 140.96 184.98 140.38 183.5 139.72C180.82 140.96 174.28 141.87 174.23 137.17C174.17 132.01 181.82 134.59 183.45 131.5C180.58 128.98 177.42 133.81 175.17 131.13C175.13 127.26 182.75 127.18 185.2 128.28C188.31 129.67 188.71 137.44 187.83 140.31ZM203.5 128.24C205.05 128.33 206.6 128.41 208.16 128.5C207.94 129.29 207.72 130.07 207.5 130.86C206.5 131.09 205.28 130.78 204.35 131.19C201.55 132.43 203.56 138.21 202.5 140.47C201.28 140.47 200.05 140.47 198.83 140.47C198.83 136.4 198.83 132.32 198.83 128.24C200.39 128.24 201.94 128.24 203.5 128.24ZM230.17 134.96C227.14 135.14 224.11 135.32 221.08 135.5C220.84 139.09 224.68 138.17 226.5 136.64C227.68 136.93 228.87 137.21 230.05 137.5C226.81 143.51 214.89 141.07 216.29 133.5C217.13 128.96 222.21 126.37 226.55 128.26C228.68 129.19 231.75 132.55 230.17 134.96ZM285.5 128.14C286.83 130.56 288.17 132.97 289.5 135.39C290.86 132.35 292.1 126.12 296.64 128.5C295.92 130.51 292.16 139.75 290.5 140.41C289.7 140.73 288.03 140.7 287.32 140.18C285.72 139.02 282.07 130.24 281.54 128.14C282.86 128.14 284.18 128.14 285.5 128.14ZM56.04 132.5C55.1 129.75 51.77 130.17 50.64 132.5C51.88 133.43 54.89 133.52 56.04 132.5ZM226.17 132.54C225.41 129.84 221.82 130.1 220.84 132.5C222.08 133.42 224.91 133.44 226.17 132.54ZM402.2 130.72C398.02 131.76 399.84 139.54 404.4 137.85C408.01 136.52 406.47 129.66 402.2 130.72ZM78.83 135.2C77.23 134.62 75.18 135.19 74.07 136.5C74.61 139.59 79.25 138.28 78.83 135.2ZM183.65 135.5C182.05 134.36 179.89 135.28 178.6 136.5C179.27 139.76 183.14 138 183.65 135.5ZM327.75 137.13C327.75 138.24 327.75 139.34 327.75 140.45C326.42 140.45 325.1 140.45 323.77 140.45C323.77 139.34 323.77 138.24 323.77 137.13C325.1 137.13 326.42 137.13 327.75 137.13ZM425.75 137.12C425.75 138.23 425.75 139.34 425.75 140.45C424.43 140.45 423.11 140.45 421.78 140.45C421.78 139.34 421.78 138.23 421.78 137.12C423.11 137.12 424.43 137.12 425.75 137.12Z" fill="#a2a6b1" fill-rule="evenodd" stroke="#a2a6b1" stroke-width="0.25" stroke-linejoin="round"/>
</svg>